<svg xmlns="http://www.w3.org/2000/svg" xmlns:xlink="http://www.w3.org/1999/xlink" width="500" zoomAndPan="magnify" viewBox="0 0 375 374.999991" height="500" preserveAspectRatio="xMidYMid meet" version="1.0"><defs><clipPath id="2a9a03ebaf"><path d="M 52 16.746094 L 154 16.746094 L 154 303 L 52 303 Z M 52 16.746094 " clip-rule="nonzero"/></clipPath><clipPath id="a76eab620f"><path d="M 168 72 L 270 72 L 270 357.996094 L 168 357.996094 Z M 168 72 " clip-rule="nonzero"/></clipPath><clipPath id="c14ce7c543"><path d="M 305 27 L 322.710938 27 L 322.710938 46 L 305 46 Z M 305 27 " clip-rule="nonzero"/></clipPath></defs><g clip-path="url(#2a9a03ebaf)"><path fill="#ffffff" d="M 52.046875 177.472656 L 52.046875 141.789062 C 59.277344 141.394531 64.730469 140.304688 68.398438 138.515625 C 72.066406 136.730469 75.238281 133.738281 77.914062 129.523438 C 80.59375 125.308594 82.425781 120.035156 83.417969 113.6875 C 84.207031 108.929688 84.605469 100.65625 84.605469 88.859375 C 84.605469 69.632812 85.496094 56.222656 87.28125 48.644531 C 89.066406 41.0625 92.285156 34.964844 96.945312 30.355469 C 101.601562 25.746094 108.390625 22.105469 117.3125 19.429688 C 123.355469 17.644531 132.871094 16.753906 145.855469 16.753906 L 153.738281 16.753906 L 153.738281 52.289062 C 142.738281 52.289062 135.671875 52.910156 132.550781 54.144531 C 129.429688 55.386719 127.125 57.265625 125.636719 59.792969 C 124.152344 62.320312 123.410156 66.660156 123.410156 72.804688 C 123.410156 79.046875 122.960938 90.894531 122.070312 108.335938 C 121.574219 118.148438 120.285156 126.105469 118.203125 132.199219 C 116.125 138.292969 113.46875 143.324219 110.25 147.289062 C 107.027344 151.253906 102.097656 155.367188 95.457031 159.628906 C 101.304688 163 106.085938 166.9375 109.804688 171.449219 C 113.523438 175.960938 116.367188 181.433594 118.351562 187.878906 C 120.335938 194.320312 121.625 202.945312 122.21875 213.746094 C 122.910156 230.199219 123.257812 240.703125 123.257812 245.265625 C 123.257812 251.804688 124.050781 256.363281 125.636719 258.941406 C 127.222656 261.519531 129.625 263.476562 132.847656 264.816406 C 136.066406 266.152344 143.03125 266.820312 153.738281 266.820312 L 153.738281 302.503906 L 145.855469 302.503906 C 132.476562 302.503906 122.21875 301.433594 115.082031 299.308594 C 107.945312 297.175781 101.925781 293.632812 97.019531 288.675781 C 92.113281 283.71875 88.816406 277.597656 87.132812 270.316406 C 85.445312 263.03125 84.605469 251.558594 84.605469 235.898438 C 84.605469 217.664062 83.808594 205.816406 82.226562 200.363281 C 80.042969 192.4375 76.75 186.761719 72.339844 183.34375 C 67.925781 179.921875 61.164062 177.964844 52.046875 177.472656 " fill-opacity="1" fill-rule="nonzero"/></g><path fill="#0cc0df" d="M 277.597656 90.777344 L 254.328125 90.777344 L 254.328125 67.507812 L 277.597656 67.507812 L 277.597656 90.777344 " fill-opacity="1" fill-rule="nonzero"/><path fill="#0cc0df" d="M 272.105469 137.3125 L 254.328125 137.3125 L 254.328125 119.539062 L 272.105469 119.539062 L 272.105469 137.3125 " fill-opacity="1" fill-rule="nonzero"/><g clip-path="url(#a76eab620f)"><path fill="#0cc0df" d="M 204.410156 108.554688 L 204.410156 90.777344 L 222.1875 90.777344 L 222.1875 108.554688 Z M 249.632812 191.675781 C 245.171875 188.257812 241.851562 182.585938 239.671875 174.65625 C 238.472656 170.179688 237.757812 161.609375 237.527344 148.949219 L 222.1875 148.949219 L 222.1875 125.679688 L 237.1875 125.679688 C 236.816406 116.707031 236.03125 109.714844 234.839844 104.703125 C 233.105469 97.417969 229.808594 91.273438 224.953125 86.269531 C 220.097656 81.265625 214.101562 77.71875 206.964844 75.636719 C 199.824219 73.554688 189.570312 72.519531 176.1875 72.519531 L 168.308594 72.519531 L 168.308594 108.050781 C 179.507812 108.050781 186.71875 108.71875 189.941406 110.054688 C 193.160156 111.394531 195.390625 113.304688 196.632812 115.78125 C 197.867188 118.257812 198.539062 123.214844 198.636719 130.648438 C 199.132812 154.234375 199.925781 169.5 201.015625 176.441406 C 202.699219 186.550781 205.871094 194.871094 210.53125 201.414062 C 213.898438 205.976562 219.25 210.632812 226.589844 215.390625 C 220.9375 218.660156 216.300781 222.453125 212.6875 226.765625 C 209.066406 231.078125 206.167969 236.332031 203.988281 242.523438 C 201.808594 248.71875 200.472656 256.96875 199.976562 267.277344 C 199.179688 284.328125 198.761719 295.871094 198.714844 301.917969 C 198.660156 307.964844 197.867188 312.25 196.332031 314.777344 C 194.792969 317.308594 192.394531 319.238281 189.121094 320.578125 C 185.851562 321.917969 178.910156 322.585938 168.308594 322.585938 L 168.308594 358.265625 L 176.1875 358.265625 C 189.171875 358.265625 198.6875 357.375 204.730469 355.589844 C 213.753906 352.914062 220.589844 349.273438 225.253906 344.664062 C 229.90625 340.054688 233.105469 333.933594 234.839844 326.300781 C 236.574219 318.667969 237.441406 305.238281 237.441406 286.007812 C 237.441406 274.316406 237.835938 266.089844 238.628906 261.332031 C 239.71875 254.988281 241.578125 249.710938 244.203125 245.496094 C 246.832031 241.285156 249.976562 238.285156 253.648438 236.503906 C 257.3125 234.71875 262.765625 233.628906 270 233.230469 L 270 197.550781 C 260.878906 197.054688 254.09375 195.097656 249.632812 191.675781 " fill-opacity="1" fill-rule="nonzero"/></g><g clip-path="url(#c14ce7c543)"><path fill="#0cc0df" d="M 322.96875 45.582031 L 305.191406 45.582031 L 305.191406 27.804688 L 322.96875 27.804688 L 322.96875 45.582031 " fill-opacity="1" fill-rule="nonzero"/></g><path fill="#0cc0df" d="M 233.820312 67.507812 L 200.632812 67.507812 L 200.632812 34.320312 L 233.820312 34.320312 L 233.820312 67.507812 " fill-opacity="1" fill-rule="nonzero"/></svg>