<svg xmlns="http://www.w3.org/2000/svg" xmlns:xlink="http://www.w3.org/1999/xlink" width="500" zoomAndPan="magnify" viewBox="0 0 375 374.999991" height="500" preserveAspectRatio="xMidYMid meet" version="1.0"><defs><clipPath id="a8d75f5e00"><path d="M 98.660156 59.363281 L 172 59.363281 L 172 266 L 98.660156 266 Z M 98.660156 59.363281 " clip-rule="nonzero"/></clipPath><clipPath id="7308a66ec6"><path d="M 182 99 L 256 99 L 256 305.363281 L 182 305.363281 Z M 182 99 " clip-rule="nonzero"/></clipPath><clipPath id="ebf0ecbd41"><path d="M 281 67 L 293.660156 67 L 293.660156 81 L 281 81 Z M 281 67 " clip-rule="nonzero"/></clipPath></defs><g clip-path="url(#a8d75f5e00)"><path fill="#ffffff" d="M 98.71875 175.167969 L 98.71875 149.457031 C 103.929688 149.171875 107.859375 148.386719 110.5 147.097656 C 113.140625 145.8125 115.429688 143.65625 117.355469 140.621094 C 119.285156 137.585938 120.605469 133.785156 121.320312 129.210938 C 121.890625 125.785156 122.175781 119.820312 122.175781 111.320312 C 122.175781 97.46875 122.820312 87.808594 124.105469 82.347656 C 125.390625 76.882812 127.710938 72.488281 131.066406 69.171875 C 134.425781 65.847656 139.316406 63.226562 145.742188 61.296875 C 150.097656 60.011719 156.953125 59.367188 166.308594 59.367188 L 171.988281 59.367188 L 171.988281 84.972656 C 164.0625 84.972656 158.972656 85.417969 156.722656 86.308594 C 154.472656 87.203125 152.8125 88.558594 151.742188 90.378906 C 150.671875 92.199219 150.136719 95.324219 150.136719 99.753906 C 150.136719 104.253906 149.8125 112.785156 149.171875 125.355469 C 148.8125 132.425781 147.886719 138.15625 146.386719 142.546875 C 144.886719 146.9375 142.976562 150.5625 140.65625 153.417969 C 138.335938 156.277344 134.78125 159.242188 129.996094 162.3125 C 134.210938 164.738281 137.65625 167.578125 140.335938 170.828125 C 143.011719 174.078125 145.0625 178.023438 146.492188 182.664062 C 147.921875 187.304688 148.851562 193.519531 149.277344 201.300781 C 149.777344 213.15625 150.027344 220.726562 150.027344 224.011719 C 150.027344 228.722656 150.597656 232.007812 151.742188 233.867188 C 152.882812 235.722656 154.617188 237.136719 156.9375 238.097656 C 159.257812 239.0625 164.273438 239.542969 171.988281 239.542969 L 171.988281 265.253906 L 166.308594 265.253906 C 156.667969 265.253906 149.277344 264.484375 144.136719 262.949219 C 138.996094 261.414062 134.65625 258.859375 131.121094 255.289062 C 127.585938 251.71875 125.210938 247.308594 124 242.0625 C 122.78125 236.8125 122.175781 228.546875 122.175781 217.265625 C 122.175781 204.125 121.605469 195.589844 120.464844 191.660156 C 118.890625 185.949219 116.515625 181.859375 113.339844 179.398438 C 110.160156 176.933594 105.289062 175.523438 98.71875 175.167969 " fill-opacity="1" fill-rule="nonzero"/></g><path fill="#38b6ff" d="M 261.230469 112.703125 L 244.464844 112.703125 L 244.464844 95.9375 L 261.230469 95.9375 L 261.230469 112.703125 " fill-opacity="1" fill-rule="nonzero"/><path fill="#38b6ff" d="M 257.273438 146.234375 L 244.464844 146.234375 L 244.464844 133.425781 L 257.273438 133.425781 L 257.273438 146.234375 " fill-opacity="1" fill-rule="nonzero"/><g clip-path="url(#7308a66ec6)"><path fill="#38b6ff" d="M 208.496094 125.511719 L 208.496094 112.703125 L 221.308594 112.703125 L 221.308594 125.511719 Z M 241.082031 185.402344 C 237.867188 182.9375 235.472656 178.851562 233.902344 173.136719 C 233.039062 169.914062 232.523438 163.738281 232.359375 154.617188 L 221.308594 154.617188 L 221.308594 137.851562 L 232.113281 137.851562 C 231.84375 131.386719 231.28125 126.347656 230.421875 122.738281 C 229.171875 117.488281 226.796875 113.0625 223.300781 109.457031 C 219.800781 105.851562 215.480469 103.296875 210.335938 101.796875 C 205.195312 100.296875 197.804688 99.546875 188.164062 99.546875 L 182.488281 99.546875 L 182.488281 125.148438 C 190.554688 125.148438 195.75 125.628906 198.070312 126.59375 C 200.390625 127.558594 202 128.933594 202.894531 130.71875 C 203.785156 132.503906 204.265625 136.074219 204.339844 141.429688 C 204.695312 158.425781 205.265625 169.421875 206.050781 174.421875 C 207.265625 181.707031 209.550781 187.703125 212.910156 192.417969 C 215.335938 195.703125 219.191406 199.0625 224.476562 202.488281 C 220.40625 204.84375 217.066406 207.574219 214.460938 210.683594 C 211.851562 213.789062 209.765625 217.574219 208.195312 222.039062 C 206.625 226.5 205.660156 232.445312 205.300781 239.871094 C 204.730469 252.15625 204.425781 260.472656 204.394531 264.832031 C 204.355469 269.1875 203.785156 272.277344 202.679688 274.097656 C 201.570312 275.917969 199.839844 277.3125 197.484375 278.277344 C 195.125 279.242188 190.125 279.722656 182.488281 279.722656 L 182.488281 305.429688 L 188.164062 305.429688 C 197.519531 305.429688 204.375 304.789062 208.730469 303.503906 C 215.230469 301.574219 220.152344 298.949219 223.515625 295.628906 C 226.871094 292.308594 229.171875 287.898438 230.421875 282.398438 C 231.671875 276.898438 232.296875 267.222656 232.296875 253.367188 C 232.296875 244.945312 232.582031 239.015625 233.152344 235.585938 C 233.9375 231.019531 235.277344 227.214844 237.171875 224.179688 C 239.0625 221.144531 241.328125 218.984375 243.972656 217.699219 C 246.613281 216.414062 250.542969 215.628906 255.757812 215.34375 L 255.757812 189.632812 C 249.183594 189.277344 244.292969 187.863281 241.082031 185.402344 " fill-opacity="1" fill-rule="nonzero"/></g><g clip-path="url(#ebf0ecbd41)"><path fill="#38b6ff" d="M 293.921875 80.140625 L 281.109375 80.140625 L 281.109375 67.328125 L 293.921875 67.328125 L 293.921875 80.140625 " fill-opacity="1" fill-rule="nonzero"/></g><path fill="#38b6ff" d="M 229.6875 95.9375 L 205.777344 95.9375 L 205.777344 72.023438 L 229.6875 72.023438 L 229.6875 95.9375 " fill-opacity="1" fill-rule="nonzero"/></svg>