<svg xmlns="http://www.w3.org/2000/svg" xmlns:xlink="http://www.w3.org/1999/xlink" width="500" zoomAndPan="magnify" viewBox="0 0 375 374.999991" height="500" preserveAspectRatio="xMidYMid meet" version="1.0"><defs><clipPath id="bdd76d0457"><path d="M 52 16.746094 L 156 16.746094 L 156 309 L 52 309 Z M 52 16.746094 " clip-rule="nonzero"/></clipPath><clipPath id="dc20f45dfa"><path d="M 170 73 L 275 73 L 275 365.496094 L 170 365.496094 Z M 170 73 " clip-rule="nonzero"/></clipPath><clipPath id="190305777d"><path d="M 310 28 L 328.710938 28 L 328.710938 47 L 310 47 Z M 310 28 " clip-rule="nonzero"/></clipPath></defs><rect x="-37.5" width="450" fill="#ffffff" y="-37.499999" height="449.999989" fill-opacity="1"/><rect x="-37.5" width="450" fill="#ffffff" y="-37.499999" height="449.999989" fill-opacity="1"/><g clip-path="url(#bdd76d0457)"><path fill="#ffffff" d="M 52.054688 180.753906 L 52.054688 144.339844 C 59.433594 143.941406 64.996094 142.824219 68.738281 141.003906 C 72.480469 139.179688 75.71875 136.128906 78.449219 131.824219 C 81.179688 127.527344 83.050781 122.144531 84.0625 115.667969 C 84.867188 110.8125 85.277344 102.367188 85.277344 90.332031 C 85.277344 70.710938 86.1875 57.03125 88.007812 49.296875 C 89.828125 41.558594 93.113281 35.335938 97.867188 30.636719 C 102.621094 25.929688 109.550781 22.214844 118.652344 19.484375 C 124.820312 17.664062 134.527344 16.753906 147.777344 16.753906 L 155.820312 16.753906 L 155.820312 53.015625 C 144.59375 53.015625 137.386719 53.648438 134.203125 54.910156 C 131.015625 56.175781 128.664062 58.09375 127.148438 60.671875 C 125.628906 63.25 124.871094 67.679688 124.871094 73.949219 C 124.871094 80.320312 124.414062 92.40625 123.503906 110.207031 C 123 120.21875 121.6875 128.335938 119.5625 134.554688 C 117.4375 140.773438 114.730469 145.910156 111.445312 149.953125 C 108.15625 154 103.125 158.199219 96.351562 162.546875 C 102.316406 165.984375 107.195312 170.003906 110.992188 174.605469 C 114.785156 179.210938 117.6875 184.796875 119.714844 191.371094 C 121.734375 197.945312 123.050781 206.746094 123.65625 217.765625 C 124.363281 234.558594 124.71875 245.277344 124.71875 249.929688 C 124.71875 256.605469 125.527344 261.253906 127.148438 263.886719 C 128.765625 266.515625 131.21875 268.515625 134.503906 269.882812 C 137.789062 271.246094 144.898438 271.925781 155.820312 271.925781 L 155.820312 308.335938 L 147.777344 308.335938 C 134.125 308.335938 123.65625 307.246094 116.375 305.078125 C 109.09375 302.902344 102.949219 299.285156 97.945312 294.230469 C 92.9375 289.171875 89.574219 282.925781 87.855469 275.492188 C 86.132812 268.058594 85.277344 256.351562 85.277344 240.375 C 85.277344 221.765625 84.464844 209.675781 82.847656 204.113281 C 80.621094 196.023438 77.261719 190.234375 72.757812 186.742188 C 68.257812 183.253906 61.355469 181.257812 52.054688 180.753906 " fill-opacity="1" fill-rule="nonzero"/></g><path fill="#0cc0df" d="M 282.210938 92.289062 L 258.464844 92.289062 L 258.464844 68.542969 L 282.210938 68.542969 L 282.210938 92.289062 " fill-opacity="1" fill-rule="nonzero"/><path fill="#0cc0df" d="M 276.605469 139.777344 L 258.464844 139.777344 L 258.464844 121.636719 L 276.605469 121.636719 L 276.605469 139.777344 " fill-opacity="1" fill-rule="nonzero"/><g clip-path="url(#dc20f45dfa)"><path fill="#0cc0df" d="M 207.523438 110.429688 L 207.523438 92.289062 L 225.667969 92.289062 L 225.667969 110.429688 Z M 253.671875 195.25 C 249.121094 191.757812 245.734375 185.972656 243.507812 177.878906 C 242.285156 173.3125 241.554688 164.566406 241.320312 151.648438 L 225.667969 151.648438 L 225.667969 127.902344 L 240.972656 127.902344 C 240.59375 118.746094 239.792969 111.613281 238.578125 106.5 C 236.808594 99.066406 233.441406 92.796875 228.488281 87.691406 C 223.535156 82.585938 217.414062 78.964844 210.132812 76.839844 C 202.847656 74.714844 192.386719 73.65625 178.726562 73.65625 L 170.6875 73.65625 L 170.6875 109.914062 C 182.117188 109.914062 189.472656 110.597656 192.761719 111.960938 C 196.046875 113.328125 198.324219 115.277344 199.589844 117.800781 C 200.851562 120.332031 201.535156 125.386719 201.636719 132.972656 C 202.140625 157.042969 202.949219 172.621094 204.0625 179.699219 C 205.78125 190.015625 209.015625 198.507812 213.773438 205.1875 C 217.210938 209.839844 222.671875 214.59375 230.160156 219.445312 C 224.394531 222.785156 219.660156 226.652344 215.972656 231.054688 C 212.277344 235.453125 209.324219 240.8125 207.097656 247.132812 C 204.875 253.453125 203.507812 261.875 203 272.394531 C 202.191406 289.789062 201.761719 301.570312 201.714844 307.742188 C 201.660156 313.910156 200.851562 318.285156 199.285156 320.863281 C 197.714844 323.445312 195.265625 325.414062 191.925781 326.78125 C 188.589844 328.148438 181.507812 328.828125 170.6875 328.828125 L 170.6875 365.238281 L 178.726562 365.238281 C 191.976562 365.238281 201.6875 364.328125 207.855469 362.507812 C 217.058594 359.777344 224.035156 356.0625 228.792969 351.359375 C 233.546875 346.65625 236.808594 340.410156 238.578125 332.621094 C 240.347656 324.832031 241.234375 311.128906 241.234375 291.507812 C 241.234375 279.574219 241.636719 271.179688 242.445312 266.324219 C 243.558594 259.851562 245.457031 254.46875 248.132812 250.167969 C 250.8125 245.871094 254.023438 242.808594 257.769531 240.992188 C 261.507812 239.167969 267.074219 238.054688 274.457031 237.652344 L 274.457031 201.242188 C 265.148438 200.738281 258.222656 198.738281 253.671875 195.25 " fill-opacity="1" fill-rule="nonzero"/></g><g clip-path="url(#190305777d)"><path fill="#0cc0df" d="M 328.507812 46.171875 L 310.363281 46.171875 L 310.363281 28.027344 L 328.507812 28.027344 L 328.507812 46.171875 " fill-opacity="1" fill-rule="nonzero"/></g><path fill="#0cc0df" d="M 237.539062 68.542969 L 203.671875 68.542969 L 203.671875 34.675781 L 237.539062 34.675781 L 237.539062 68.542969 " fill-opacity="1" fill-rule="nonzero"/></svg>