<svg width="18" height="18" viewBox="0 0 18 18" fill="none" xmlns="http://www.w3.org/2000/svg">
<path opacity="0.4" d="M15.9998 9.00018C15.9998 12.8662 12.8657 16.0002 8.99976 16.0002C5.13376 16.0002 1.99976 12.8662 1.99976 9.00018C1.99976 5.13419 5.13376 2.00018 8.99976 2.00018C12.8657 2.00018 15.9998 5.13419 15.9998 9.00018Z" stroke="#0076FF"/>
<path d="M8.99957 12.9375C8.68907 12.9375 8.43707 12.6855 8.43707 12.375V8.94672C8.43707 8.63622 8.68907 8.38422 8.99957 8.38422C9.31007 8.38422 9.56207 8.63622 9.56207 8.94672V12.375C9.56207 12.6855 9.31007 12.9375 8.99957 12.9375ZM9.76459 6.375C9.76459 5.961 9.42934 5.625 9.01459 5.625H9.00708C8.59308 5.625 8.26074 5.961 8.26074 6.375C8.26074 6.789 8.60059 7.125 9.01459 7.125C9.42859 7.125 9.76459 6.789 9.76459 6.375Z" fill="#54A3FF"/>
</svg>
