<svg width="24" height="26" viewBox="0 0 24 26" fill="none" xmlns="http://www.w3.org/2000/svg">
<path opacity="0.4" d="M12 24C17.5228 24 22 19.5228 22 14C22 8.47715 17.5228 4 12 4C6.47715 4 2 8.47715 2 14C2 19.5228 6.47715 24 12 24Z" fill="#0076FF"/>
<path d="M11.9998 18.6875C11.5858 18.6875 11.2498 18.3235 11.2498 17.875V12.923C11.2498 12.4745 11.5858 12.1105 11.9998 12.1105C12.4138 12.1105 12.7498 12.4745 12.7498 12.923V17.875C12.7498 18.3235 12.4138 18.6875 11.9998 18.6875ZM13.0198 9.20833C13.0198 8.61033 12.5728 8.125 12.0198 8.125H12.0098C11.4578 8.125 11.0146 8.61033 11.0146 9.20833C11.0146 9.80633 11.4678 10.2917 12.0198 10.2917C12.5718 10.2917 13.0198 9.80633 13.0198 9.20833Z" fill="#0076FF"/>
</svg>
