<svg width="48" height="49" viewBox="0 0 48 49" fill="none" xmlns="http://www.w3.org/2000/svg">
<circle cx="24" cy="24.585" r="24" fill="#0076FF"/>
<path d="M32.21 21.405L26 15.365C25.474 14.8648 24.7759 14.5859 24.05 14.5859C23.3241 14.5859 22.626 14.8648 22.1 15.365L15.89 21.365C15.6141 21.6059 15.3922 21.9023 15.2388 22.2349C15.0854 22.5675 15.004 22.9287 15 23.295V31.875C15.0105 32.6026 15.309 33.2964 15.8301 33.8043C16.3512 34.3123 17.0524 34.593 17.78 34.585H30.22C30.9476 34.593 31.6488 34.3123 32.1699 33.8043C32.691 33.2964 32.9895 32.6026 33 31.875V23.295C32.9992 22.9435 32.929 22.5955 32.7935 22.2712C32.6579 21.9469 32.4596 21.6525 32.21 21.405ZM23.44 16.805C23.593 16.6651 23.7927 16.5876 24 16.5876C24.2073 16.5876 24.407 16.6651 24.56 16.805L30 22.085L24.53 27.365C24.377 27.5048 24.1773 27.5824 23.97 27.5824C23.7627 27.5824 23.563 27.5048 23.41 27.365L18 22.085L23.44 16.805ZM31 31.875C30.9871 32.0713 30.8987 32.2549 30.7532 32.3873C30.6078 32.5197 30.4166 32.5906 30.22 32.585H17.78C17.5834 32.5906 17.3922 32.5197 17.2468 32.3873C17.1013 32.2549 17.0129 32.0713 17 31.875V23.935L21.05 27.835L19.39 29.435C19.2037 29.6223 19.0992 29.8758 19.0992 30.14C19.0992 30.4042 19.2037 30.6576 19.39 30.845C19.4829 30.9425 19.5946 31.0202 19.7184 31.0735C19.8421 31.1267 19.9753 31.1545 20.11 31.155C20.3675 31.154 20.6146 31.0537 20.8 30.875L22.57 29.175C23.0096 29.4436 23.5148 29.5858 24.03 29.5858C24.5452 29.5858 25.0504 29.4436 25.49 29.175L27.26 30.875C27.4454 31.0537 27.6925 31.154 27.95 31.155C28.0847 31.1545 28.2179 31.1267 28.3416 31.0735C28.4654 31.0202 28.5771 30.9425 28.67 30.845C28.8563 30.6576 28.9608 30.4042 28.9608 30.14C28.9608 29.8758 28.8563 29.6223 28.67 29.435L27 27.835L31 23.935V31.875Z" fill="#F0FDF4"/>
</svg>
