<svg width="14" height="14" viewBox="0 0 14 14" fill="none" xmlns="http://www.w3.org/2000/svg">
<path d="M7.00008 1.16669C3.78008 1.16669 1.16675 3.78002 1.16675 7.00002C1.16675 10.22 3.78008 12.8334 7.00008 12.8334C10.2201 12.8334 12.8334 10.22 12.8334 7.00002C12.8334 3.78002 10.2201 1.16669 7.00008 1.16669ZM9.04175 7.43752H7.43758V9.04169C7.43758 9.28085 7.23925 9.47919 7.00008 9.47919C6.76092 9.47919 6.56258 9.28085 6.56258 9.04169V7.43752H4.95841C4.71925 7.43752 4.52091 7.23919 4.52091 7.00002C4.52091 6.76085 4.71925 6.56252 4.95841 6.56252H6.56258V4.95835C6.56258 4.71919 6.76092 4.52085 7.00008 4.52085C7.23925 4.52085 7.43758 4.71919 7.43758 4.95835V6.56252H9.04175C9.28092 6.56252 9.47925 6.76085 9.47925 7.00002C9.47925 7.23919 9.28092 7.43752 9.04175 7.43752Z" fill="white"/>
</svg>
