<svg width="124" height="32" viewBox="0 0 124 32" fill="none" xmlns="http://www.w3.org/2000/svg">
<path d="M40.1982 24.58L41.7345 20.98C43.3947 22.23 45.6 22.88 47.7805 22.88C49.3912 22.88 50.4071 22.255 50.4071 21.305C50.3823 18.655 40.7682 20.73 40.6938 14.08C40.669 10.705 43.6425 8.10498 47.8549 8.10498C50.3575 8.10498 52.8602 8.72998 54.6443 10.155L53.2071 13.83C51.5717 12.78 49.5398 12.03 47.6071 12.03C46.2938 12.03 45.4266 12.655 45.4266 13.455C45.4513 16.055 55.1398 14.63 55.2389 20.98C55.2389 24.43 52.3398 26.855 48.177 26.855C45.1292 26.855 42.3292 26.13 40.1982 24.58Z" fill="#777980"/>
<path d="M99.147 19.68C98.3789 21.03 96.9417 21.955 95.2815 21.955C92.8284 21.955 90.8461 19.955 90.8461 17.48C90.8461 15.005 92.8284 13.005 95.2815 13.005C96.9417 13.005 98.3789 13.93 99.147 15.28L103.384 12.905C101.798 10.055 98.7506 8.10498 95.2815 8.10498C90.1523 8.10498 85.9895 12.305 85.9895 17.48C85.9895 22.655 90.1523 26.855 95.2815 26.855C98.7753 26.855 101.798 24.93 103.384 22.055L99.147 19.68Z" fill="#777980"/>
<rect x="57.3699" y="0.330078" width="5.30265" height="26.175" fill="#777980"/>
<path d="M105.466 0.330078V26.5051H110.768V18.6551L117.062 26.5051H123.852L115.848 17.1801L123.257 8.48008H116.765L110.768 15.7051V0.330078H105.466Z" fill="#777980"/>
<path fill-rule="evenodd" clip-rule="evenodd" d="M78.4319 10.605V8.47998H83.7346V26.48H78.4319V24.355C77.5647 25.83 75.4089 26.855 73.154 26.855C68.4956 26.855 64.8284 22.655 64.8284 17.455C64.8284 12.255 68.4956 8.10498 73.154 8.10498C75.4089 8.10498 77.5647 9.12998 78.4319 10.605ZM74.2939 21.955C76.0779 21.955 77.6638 21.005 78.4319 19.73V15.305C77.6638 14.005 76.0779 13.005 74.2939 13.005C71.8408 13.005 69.8585 15.005 69.8585 17.48C69.8585 19.955 71.8408 21.955 74.2939 21.955Z" fill="#777980"/>
<path d="M6.58342 19.8317C6.58342 21.6454 5.11758 23.1113 3.30392 23.1113C1.49025 23.1113 0.0244141 21.6454 0.0244141 19.8317C0.0244141 18.0181 1.49025 16.5522 3.30392 16.5522H6.58342V19.8317Z" fill="#777980"/>
<path d="M8.22363 19.8317C8.22363 18.0181 9.68947 16.5522 11.5031 16.5522C13.3168 16.5522 14.7826 18.0181 14.7826 19.8317V28.0305C14.7826 29.8442 13.3168 31.31 11.5031 31.31C9.68947 31.31 8.22363 29.8442 8.22363 28.0305V19.8317H8.22363Z" fill="#777980"/>
<path d="M11.5031 6.66399C9.68947 6.66399 8.22363 5.19815 8.22363 3.38448C8.22363 1.57082 9.68947 0.10498 11.5031 0.10498C13.3168 0.10498 14.7826 1.57082 14.7826 3.38448V6.66399H11.5031Z" fill="#777980"/>
<path d="M11.5031 8.32861C13.3168 8.32861 14.7826 9.79445 14.7826 11.6081C14.7826 13.4218 13.3168 14.8876 11.5031 14.8876H3.2795C1.46584 14.8876 0 13.4218 0 11.6081C0 9.79445 1.46584 8.32861 3.2795 8.32861H11.5031Z" fill="#777980"/>
<path d="M24.6465 11.6081C24.6465 9.79445 26.1123 8.32861 27.926 8.32861C29.7397 8.32861 31.2055 9.79445 31.2055 11.6081C31.2055 13.4218 29.7397 14.8876 27.926 14.8876H24.6465V11.6081Z" fill="#777980"/>
<path d="M23.0063 11.6081C23.0063 13.4218 21.5404 14.8876 19.7268 14.8876C17.9131 14.8876 16.4473 13.4218 16.4473 11.6081V3.38448C16.4473 1.57082 17.9131 0.10498 19.7268 0.10498C21.5404 0.10498 23.0063 1.57082 23.0063 3.38448V11.6081Z" fill="#777980"/>
<path d="M19.7268 24.751C21.5404 24.751 23.0063 26.2168 23.0063 28.0305C23.0063 29.8441 21.5404 31.31 19.7268 31.31C17.9131 31.31 16.4473 29.8441 16.4473 28.0305V24.751H19.7268Z" fill="#777980"/>
<path d="M19.7268 23.1113C17.9131 23.1113 16.4473 21.6454 16.4473 19.8317C16.4473 18.0181 17.9131 16.5522 19.7268 16.5522H27.9504C29.764 16.5522 31.2299 18.0181 31.2299 19.8317C31.2299 21.6454 29.764 23.1113 27.9504 23.1113H19.7268Z" fill="#777980"/>
</svg>
